Title:

Better Angel aka Schutzengel

Country:
Germany/2012

Language:
German

Subtitle:
English

Director:
Til Schweiger

Writers:
Stephen Butchard, Paul Maurice

Stars:
Til Schweiger, Luna Schweiger, Karoline Schuch, David Akinloye

Synopsis:
A troubled former soldier works to protect an orphan who witnessed a murder from the assassins out to get her. 

Imdb: 
http://www.imdb.com/title/tt2199581/

Trailer: 
http://www.film-zeit.de/Film/22615/SCHUTZENGEL/Trailer/


Media Info:

General
Complete name                            : Better.Angel.[Schutzengel].2012.720p.BRRip.XviD.AC3.HORiZON-ArtSubs
Format                                   : AVI
Format/Info                              : Audio Video Interleave
File size                                : 1.56 GiB
Duration                                 : 2h 12mn
Overall bit rate                         : 1 680 Kbps

Video
ID                                       : 0
Format                                   : MPEG-4 Visual
Format profile                           : Advanced Simple@L5
Format settings, BVOP                    : 2
Format settings, QPel                    : No
Format settings, GMC                     : No warppoints
Format settings, Matrix                  : Default (H.263)
Codec ID                                 : XVID
Codec ID/Hint                            : XviD
Duration                                 : 2h 12mn
Bit rate                                 : 1 223 Kbps
Width                                    : 720 pixels
Height                                   : 304 pixels
Display aspect ratio                     : 2.35:1
Frame rate                               : 23.976 fps
Color space                              : YUV
Chroma subsampling                       : 4:2:0
Bit depth                                : 8 bits
Scan type                                : Progressive
Compression mode                         : Lossy
Bits/(Pixel*Frame)                       : 0.233
Stream size                              : 1.14 GiB (73%)
Writing library                          : XviD 1.2.1 (UTC 2008-12-04)

Audio
ID                                       : 1
Format                                   : AC-3
Format/Info                              : Audio Coding 3
Mode extension                           : CM (complete main)
Format settings, Endianness              : Big
Codec ID                                 : 2000
Duration                                 : 2h 12mn
Bit rate mode                            : Constant
Bit rate                                 : 448 Kbps
Channel(s)                               : 6 channels
Channel positions                        : Front: L C R, Side: L R, LFE
Sampling rate                            : 48.0 KHz
Bit depth                                : 16 bits
Compression mode                         : Lossy
Stream size                              : 426 MiB (27%)
Alignment                                : Split accross interleaves
Interleave, duration                     : 42 ms (1.00 video frame)
Interleave, preload duration             : 500 ms

